<svg xmlns="http://www.w3.org/2000/svg" width="210" height="50" viewBox="0 0 210 50">
  <!-- Button background -->
  <rect width="210" height="50" rx="4" fill="#171717" stroke="#3B82F6" stroke-width="1" />

  <!-- Cloud icon positioned to perfectly cover the "u" shape in "loud" -->
  <path d="M157,17 C160,17 162.5,18 164,19.5 C165.5,19.4 167,19.3 168.5,19.3 C171,19.3 173.5,20 175,21.5 C175.3,21.8 175.5,22.2 175.5,22.5 C175.5,23.2 174.7,23.8 173.5,23.8 H157 C155,23.8 153.5,22.5 153.5,20.8 C153.5,19.1 155,17.8 157,17.8 C157.5,17.8 158,17.9 158.5,18.1 V17.8 C158.5,17.2 159.5,17 160.5,17 Z" fill="#4285F4"/>

  <!-- Text using a standard font that's easily readable -->
  <!-- Text as a single element -->
  <text x="105" y="35" font-family="Arial, Helvetica, sans-serif" font-size="16" font-weight="bold" fill="white" text-anchor="middle">
    deploy to <tspan fill="#4285F4">smb</tspan>Cloud
  </text>
</svg>
